PathFileType	4	(X/Y/Z)	./resultDataOpenSim/trcMotMarkerGrf/sub06/qtm-03-01.trc
DataRate	CameraRate	NumFrames	NumMarkers	Units	OrigDataRate	OrigDataStartFrame	OrigNumFrames
250.000000	250.000000	9	24	m	250.000000	187	496
Frame#	Time	L.Toe.Tip			R.Toe.Tip			L.Ankle.Lat			R.Ankle.Lat			L.Ankle.Med			R.Ankle.Med			L.Heel			R.Heel			L.Knee.Lat			R.Knee.Lat			L.Knee.Med			R.Knee.Med			L.Thigh.Upper			R.Thigh.Upper			L.ASIS			R.ASIS			V.Sacral			L.Acromium			R.Acromium			C7			L.Elbow			R.Elbow			L.Wrist.Lat			R.Wrist.Lat
		X1	Y1	Z1	X2	Y2	Z2	X3	Y3	Z3	X4	Y4	Z4	X5	Y5	Z5	X6	Y6	Z6	X7	Y7	Z7	X8	Y8	Z8	X9	Y9	Z9	X10	Y10	Z10	X11	Y11	Z11	X12	Y12	Z12	X13	Y13	Z13	X14	Y14	Z14	X15	Y15	Z15	X16	Y16	Z16	X17	Y17	Z17	X18	Y18	Z18	X19	Y19	Z19	X20	Y20	Z20	X21	Y21	Z21	X22	Y22	Z22	X23	Y23	Z23	X24	Y24	Z24

187	0.744	0.052338941	-0.015280799	-0.018509216	-0.37062727	0.094473637	0.16294036	-0.070275005	0.016187975	-0.043916188	-0.39894664	0.22872051	0.18296436	-0.072040874	0.031531298	0.043610901	-0.3621771	0.21906619	0.1009543	-0.14738566	-0.0092634942	-0.00013793899	-0.43479938	0.26757002	0.11962424	0.021910457	0.37901734	-0.068959006	-0.054767147	0.36396552	0.22121736	-0.0049977126	0.37940642	0.0503398	-0.060319898	0.34542931	0.087190946	-0.099788143	0.75739071	-0.13878094	-0.15701033	0.71567567	0.20015489	-0.037432986	0.79318371	-0.083459565	-0.059156414	0.77633163	0.16480411	-0.23406655	0.86673358	0.036357762	-0.086005248	1.2593377	-0.1566336	-0.10219784	1.2679041	0.20775157	-0.17321877	1.3047898	0.019961211	-0.17623138	0.9541262	-0.19426333	-0.19071025	0.96073668	0.28659029	-0.074545115	0.73795204	-0.2503199	-0.016146643	0.78482091	0.3047515
188	0.748	0.052272241	-0.015225751	-0.018610943	-0.35110581	0.094315236	0.16352197	-0.070335479	0.016340316	-0.043906175	-0.38271562	0.22776761	0.18309849	-0.072114378	0.031716139	0.043559203	-0.34604403	0.21871427	0.10107765	-0.14748635	-0.0091592141	-0.00018733727	-0.41977669	0.26554391	0.11977123	0.02238735	0.37930939	-0.068649401	-0.040832976	0.36839701	0.22067948	-0.0046194033	0.37948939	0.050564698	-0.045076447	0.34945989	0.085914333	-0.094955613	0.7590346	-0.13917	-0.15025961	0.71842968	0.20020011	-0.03213577	0.79519116	-0.083942685	-0.053182455	0.77863838	0.16442935	-0.22921151	0.869323	0.035516589	-0.07946093	1.2617338	-0.15647082	-0.096020826	1.2701208	0.20781715	-0.16666463	1.3069756	0.020053809	-0.16751581	0.95555951	-0.19502316	-0.18643226	0.96344542	0.28586209	-0.061952085	0.7409057	-0.2499429	-0.014665543	0.78510182	0.30492826
189	0.752	0.052221978	-0.015130307	-0.018765133	-0.33137763	0.094050587	0.16414923	-0.070409178	0.016511287	-0.043890464	-0.36650129	0.22653197	0.18317947	-0.072125535	0.031923724	0.043530778	-0.32964006	0.21810791	0.1012056	-0.14757851	-0.0090351863	-0.0002225927	-0.40477172	0.26317323	0.11986512	0.022793071	0.37960725	-0.068290097	-0.02702115	0.37297125	0.22009057	-0.0044252692	0.37958106	0.050833409	-0.030070679	0.35378179	0.084646155	-0.09010334	0.76068269	-0.13953035	-0.14351987	0.72129163	0.20030102	-0.026807425	0.79723468	-0.084409493	-0.047143572	0.78097792	0.16401356	-0.22405623	0.87179386	0.034900281	-0.072978581	1.2641576	-0.15628782	-0.089788708	1.2723328	0.20785893	-0.16012326	1.3091495	0.020154883	-0.15887203	0.95702894	-0.19577833	-0.18218497	0.96621465	0.28515219	-0.049346413	0.74397688	-0.24952913	-0.013215488	0.78549032	0.30512357
190	0.756	0.052188024	-0.015032193	-0.018906825	-0.31143172	0.093681308	0.16483254	-0.070493899	0.016699587	-0.043867299	-0.35029132	0.22496691	0.18323986	-0.072015146	0.03215589	0.043545558	-0.31308909	0.21726912	0.10125808	-0.14767094	-0.0088890332	-0.00026284649	-0.38982546	0.26047543	0.11993804	0.023146381	0.37991688	-0.067884137	-0.013348133	0.37767908	0.21944542	-0.0044574343	0.37966694	0.051080627	-0.015486101	0.35832114	0.08351474	-0.085326459	0.76230609	-0.13985876	-0.13678685	0.72422813	0.20046536	-0.021426532	0.79930038	-0.084856837	-0.041027117	0.78335753	0.1635559	-0.21845573	0.87402876	0.03468693	-0.066576045	1.266601	-0.1560933	-0.083507614	1.2745287	0.20788484	-0.15359122	1.3113048	0.020259814	-0.1503345	0.95850575	-0.19651575	-0.1779698	0.96903369	0.28445059	-0.03675284	0.74716256	-0.24907386	-0.011857662	0.78599061	0.30534014
191	0.76	0.052161538	-0.014963856	-0.018989716	-0.29128338	0.093194252	0.16556734	-0.070585613	0.016904488	-0.043834562	-0.3340517	0.2230773	0.1833163	-0.071780562	0.032408401	0.043603795	-0.29658278	0.21622587	0.10118079	-0.14776628	-0.0087206957	-0.00031123292	-0.37489813	0.25749841	0.12008727	0.023461674	0.38023771	-0.06744084	0.00017252434	0.38250904	0.21874573	-0.0046273713	0.37977443	0.051242409	-0.0014476309	0.36302789	0.082544198	-0.080621397	0.76389939	-0.14010581	-0.1300518	0.72722023	0.20069901	-0.016059864	0.80136784	-0.085287157	-0.034835727	0.7857871	0.16305762	-0.21250515	0.87607275	0.034852384	-0.06025797	1.2690486	-0.15589496	-0.077180156	1.2766946	0.2078984	-0.14707248	1.313434	0.020367609	-0.14183094	0.95997804	-0.19734078	-0.17377782	0.97189232	0.28375547	-0.024173806	0.75046314	-0.24856726	-0.010615778	0.7865978	0.30558613
192	0.764	0.052136008	-0.014927927	-0.019017668	-0.27096465	0.092590228	0.16634231	-0.070686283	0.01712184	-0.043796399	-0.31772808	0.22095231	0.18342361	-0.071514303	0.032663549	0.043673344	-0.28015501	0.21496013	0.10099748	-0.14783991	-0.008537776	-0.00032012992	-0.35989602	0.25428112	0.12037899	0.02374814	0.38055923	-0.066972857	0.013531418	0.38745043	0.21799556	-0.0047870233	0.37994562	0.051329713	0.011967809	0.36786754	0.081727	-0.075859655	0.76546706	-0.14015488	-0.12332735	0.73024391	0.20102811	-0.010787187	0.803419	-0.085716315	-0.028578903	0.78827708	0.16252952	-0.20640018	0.87807321	0.035192304	-0.053999172	1.2714861	-0.15569796	-0.070810059	1.2788169	0.20790201	-0.14056914	1.315528	0.020478501	-0.13328306	0.96145743	-0.19832891	-0.16960567	0.97478158	0.28307232	-0.011593752	0.75387848	-0.24800277	-0.0094401437	0.78729696	0.30586901
193	0.768	0.052106743	-0.014909803	-0.019021235	-0.25049375	0.091907094	0.1671553	-0.070810917	0.017342415	-0.043767935	-0.30126542	0.21870097	0.1835511	-0.071336446	0.032897505	0.043715247	-0.26369037	0.21339835	0.10079011	-0.14787652	-0.0083520123	-0.00025960868	-0.34474393	0.25077459	0.12072049	0.023985264	0.38086239	-0.06649827	0.026724221	0.3924952	0.21719671	-0.0049200387	0.38017373	0.051480497	0.024802208	0.37281774	0.081066927	-0.070941143	0.76698538	-0.13989019	-0.11660335	0.73326294	0.20146025	-0.0055643714	0.8054557	-0.086155552	-0.022261799	0.79083278	0.16198724	-0.20030929	0.88018428	0.035400355	-0.047745981	1.2739074	-0.15550547	-0.064408117	1.2808878	0.20789797	-0.13407463	1.3175782	0.020593803	-0.12474662	0.9629708	-0.19936727	-0.16545437	0.97769141	0.28240858	0.00098891236	0.75739855	-0.24738201	-0.0082577397	0.78807293	0.30619111
194	0.772	0.052072464	-0.014900212	-0.01901511	-0.22985599	0.09119887	0.16802195	-0.070979605	0.017555925	-0.043769267	-0.28463341	0.21636133	0.18367824	-0.071327219	0.033086568	0.043710108	-0.24707048	0.2115173	0.10060241	-0.14789205	-0.008167375	-0.00016012813	-0.32935743	0.24684608	0.12087788	0.024127479	0.38112771	-0.066035595	0.039748784	0.39763263	0.21635076	-0.0051611167	0.38039415	0.051850887	0.03725514	0.3778728	0.080499403	-0.065900232	0.76841592	-0.13933995	-0.10982756	0.73626359	0.20196269	-0.00023626904	0.80748808	-0.086598831	-0.015885842	0.79344851	0.16143999	-0.19426078	0.88248819	0.035250942	-0.041449262	1.2763119	-0.15531795	-0.057990528	1.282907	0.20788705	-0.12758195	1.31958	0.020715679	-0.11632637	0.96453311	-0.20030674	-0.16132049	0.98060633	0.28177035	0.013557577	0.76100592	-0.24670879	-0.0070354192	0.78891594	0.30655044
195	0.776	0.052042234	-0.014901428	-0.018979741	-0.20903059	0.090496303	0.16895934	-0.071187128	0.017760982	-0.043803181	-0.26783165	0.21389938	0.18379101	-0.071534444	0.033208269	0.043652377	-0.23026903	0.20942692	0.10038721	-0.14790559	-0.0079749499	-6.4213407e-05	-0.31361439	0.2424178	0.12069428	0.024162519	0.38134637	-0.065592704	0.052599432	0.40284063	0.21546161	-0.0055536574	0.38055866	0.052425095	0.049675636	0.38304157	0.079807743	-0.060802578	0.76976115	-0.13873467	-0.10295717	0.73926674	0.20250364	0.0052748449	0.80949901	-0.087024949	-0.0094533642	0.79611314	0.16089146	-0.18814428	0.88492544	0.034718519	-0.035113694	1.2786962	-0.1551277	-0.051569545	1.2848739	0.20787042	-0.12109696	1.3215326	0.020843667	-0.10802575	0.96613197	-0.20115996	-0.15719451	0.98350861	0.28115823	0.026098584	0.76468581	-0.24598203	-0.0057789035	0.78981701	0.30694274
